<svg xmlns="http://www.w3.org/2000/svg" viewBox="0 0 400 400">
  <path fill-rule="evenodd" d="M53.333 118.544v68.123h137.778V120c0-38.967-.847-66.667-2.039-66.667-1.121 0-16.247 11.5-33.612 25.556-17.365 14.055-32.536 25.555-33.712 25.555-1.693 0-45.433-34.364-64.526-50.695-3.691-3.158-3.889.131-3.889 64.795M251.63 54.685c-46.961 17.276-58.697 79.94-21.363 114.061 47.638 43.539 123.194 1.56 111.579-61.994-7.406-40.522-51.86-66.179-90.216-52.067M53.333 283.513v67.958l39.445-.735c61.46-1.147 87.222-21.055 87.222-67.403 0-46.767-27.721-67.773-89.444-67.776l-37.223-.001v67.957m129.319-59.427c2.819 4.691 21.115 35.191 40.657 67.777l35.532 59.248h78.717l-40.445-67.706-40.446-67.706-39.571-.072-39.57-.071 5.126 8.53m106.237 4.117c0 8.762.443 9.855 2.778 6.854 1.527-1.964 4.766-3.917 7.196-4.339 9.995-1.739 5.718-12.833-4.974-12.906-4.48-.031-5 1.051-5 10.391m20 0c0 9.585.257 10.077 3.196 6.111 3.146-4.247 3.245-4.248 6.35-.057 3.388 4.571 8.063-9.137 4.875-14.295-4.728-7.65-14.421-2.111-14.421 8.241m21.27-6.933c-4.575 4.574-4.406 6.705.952 12.063 5.619 5.619 9.362 5.616 14.453-.009 8.875-9.807-6.007-21.452-15.405-12.054m-31.15 1.146c2.29 3.705-2.861 7.954-5.926 4.889-2.565-2.565-.96-7.305 2.473-7.305 1.078 0 2.631 1.087 3.453 2.416m20 0c2.29 3.705-2.861 7.954-5.926 4.889-2.565-2.565-.96-7.305 2.473-7.305 1.078 0 2.631 1.087 3.453 2.416m23.19.889c3.692 4.449 1.233 10.028-4.421 10.028-2.521 0-5.165-1.512-5.874-3.361-1.277-3.328 2.637-9.972 5.874-9.972.923 0 2.912 1.487 4.421 3.305"/>
</svg>
